<svg width="42" height="41" viewBox="0 0 42 41" fill="none" xmlns="http://www.w3.org/2000/svg">
<g clip-path="url(#clip0_42_116)">
<path d="M41.7959 38.1104C41.7335 38.3127 41.6745 38.515 41.6017 38.7173C41.151 39.9903 39.9444 40.8901 38.6269 40.932C37.2228 40.9773 35.985 40.2031 35.4303 38.93C34.8825 37.6745 35.1495 36.2201 36.1133 35.24C36.1965 35.1563 36.3005 35.0935 36.3491 34.9401H6.15076C6.26171 35.0587 6.34492 35.1493 6.43159 35.24C7.46479 36.3003 7.68668 37.8837 6.98633 39.1846C6.29638 40.4612 4.87141 41.1343 3.4291 40.8588C2.01799 40.5902 0.943198 39.4183 0.766376 37.9535C0.593022 36.534 1.40432 35.1145 2.74261 34.539C3.01651 34.4204 3.12053 34.2913 3.11706 33.9844C3.09972 32.4394 3.10666 30.8943 3.10319 29.3492C3.10319 29.3109 3.08932 29.269 3.06852 29.1644C2.71488 29.1644 2.34737 29.1679 1.97986 29.1644C1.31418 29.1574 0.922395 28.7842 0.922395 28.1215C0.918928 23.6328 0.90506 19.1441 0.929329 14.6554C0.939731 12.8976 2.38897 11.5164 4.10518 11.5304C5.85606 11.5443 7.23249 12.9394 7.24636 14.7286C7.25676 16.2074 7.24636 17.6862 7.24636 19.165C7.24636 19.308 7.24636 19.4545 7.24636 19.6184H12.4747C12.5649 19.2906 12.6273 18.9593 12.7417 18.6523C13.2722 17.2503 14.5376 16.4132 16.1256 16.4132C22.4461 16.4132 28.7631 16.4097 35.0836 16.4202C35.458 16.4202 35.6938 16.34 35.9296 15.9982C36.6854 14.8926 38.0965 14.4461 39.3758 14.8368C40.6448 15.2204 41.5948 16.3748 41.6086 17.7316C41.6433 21.2123 41.626 24.6931 41.619 28.1739C41.619 28.7877 41.2099 29.1574 40.5928 29.1679C40.2218 29.1748 39.8508 29.1679 39.4348 29.1679C39.4348 29.4399 39.4348 29.6631 39.4348 29.8863C39.4348 31.271 39.4417 32.6556 39.4278 34.0402C39.4278 34.2913 39.5007 34.4134 39.7399 34.5146C40.7939 34.9645 41.4492 35.7632 41.7161 36.8862C41.73 36.949 41.7647 37.0048 41.7924 37.0641V38.1139L41.7959 38.1104ZM5.05169 32.9416H37.4759V29.1888H5.05169V32.9416ZM35.2847 25.9731H7.27063V27.2008H35.2847V25.9731ZM5.32213 27.2078C5.32213 27.0299 5.32213 26.8869 5.32213 26.7404C5.32213 23.863 5.32213 20.9891 5.32213 18.1117C5.32213 16.9817 5.32906 15.8552 5.32213 14.7251C5.31866 14.1113 4.92341 13.6265 4.35828 13.501C3.54004 13.3196 2.84316 13.916 2.84316 14.8193C2.83969 18.8511 2.84316 22.883 2.84316 26.9148C2.84316 27.0055 2.85009 27.0961 2.85703 27.2078H5.32559H5.32213ZM39.6532 27.2078C39.674 27.1624 39.6948 27.138 39.6948 27.1171C39.6948 24.0269 39.7017 20.9368 39.6948 17.8467C39.6948 17.4177 39.4833 17.0689 39.1227 16.8387C38.7206 16.5806 38.2906 16.5597 37.8677 16.7899C37.4169 17.0375 37.2158 17.4351 37.2158 17.9513C37.2158 20.9473 37.2158 23.9432 37.2158 26.9392C37.2158 27.0299 37.2366 27.1171 37.247 27.2078H39.6497H39.6532ZM7.25676 23.9781H12.4782V21.6134H7.25676V23.9781Z" fill="#F0467E"/>
<path d="M15.0993 0.7742C15.55 0.88232 16.0077 0.969514 16.4515 1.10554C19.7001 2.11698 21.6903 5.22455 21.3539 8.74019C21.0488 11.914 18.3757 14.5856 15.1409 14.9519C11.3375 15.3843 7.81844 12.636 7.33305 8.86226C6.83032 4.94205 9.51038 1.37409 13.3554 0.847443C13.4317 0.83698 13.501 0.798615 13.5738 0.7742C14.08 0.7742 14.5897 0.7742 15.0959 0.7742H15.0993ZM13.3554 8.84831C13.3623 9.00875 13.3727 9.14128 13.3762 9.27033C13.3831 9.83534 13.3658 10.4004 13.4004 10.9619C13.4351 11.4676 13.8616 11.8233 14.347 11.8164C14.8185 11.8094 15.2103 11.4676 15.2761 10.9828C15.3039 10.784 15.3004 10.5817 15.3004 10.3794C15.3004 9.88417 15.3004 9.3924 15.3004 8.84831C15.4876 8.84831 15.6298 8.84831 15.7754 8.84831C16.2955 8.84831 16.819 8.86226 17.3356 8.83785C17.9805 8.80646 18.3931 8.18215 18.192 7.57877C18.0567 7.1742 17.6927 6.92308 17.1969 6.9161C16.5728 6.90913 15.9522 6.9161 15.3004 6.9161C15.3004 6.61616 15.3004 6.37899 15.3004 6.13834C15.2935 5.68145 15.3212 5.22106 15.2657 4.77115C15.1825 4.08406 14.4024 3.73878 13.8269 4.10848C13.4906 4.32472 13.3727 4.65256 13.3762 5.0397C13.3796 5.65354 13.3762 6.27087 13.3762 6.9161C12.7278 6.9161 12.128 6.91262 11.5282 6.9161C10.8591 6.92308 10.4396 7.30324 10.4361 7.8857C10.4361 8.47861 10.8417 8.84482 11.5213 8.84831C12.1211 8.8518 12.7174 8.84831 13.3519 8.84831H13.3554Z" fill="#F0467E"/>
</g>
<defs>
<clipPath id="clip0_42_116">
<rect width="41.0538" height="40.1613" fill="white" transform="translate(0.742188 0.77417)"/>
</clipPath>
</defs>
</svg>
