<svg width="44" height="40" viewBox="0 0 44 40" fill="none" xmlns="http://www.w3.org/2000/svg">
<g clip-path="url(#clip0_42_119)">
<path d="M0.881519 6.76109C0.923326 6.55771 0.954681 6.35178 1.00955 6.15094C1.34139 4.88486 2.60343 4.02301 3.89421 4.17555C5.29734 4.34335 6.30854 5.41366 6.31638 6.79923C6.33206 9.53222 6.3216 12.2627 6.3216 14.9957C6.3216 15.1355 6.30593 15.2779 6.32422 15.4152C6.40783 16.038 6.22231 16.4423 5.64486 16.8567C4.01179 18.0363 3.78447 20.4312 5.16408 21.893C6.48622 23.2964 7.92071 24.6006 9.31339 25.9378C9.60081 26.2149 10.0215 26.1895 10.2802 25.9277C10.5571 25.6505 10.5519 25.2717 10.2331 24.9565C9.44403 24.1785 8.64187 23.4133 7.84493 22.643C7.40596 22.2184 6.97483 21.7862 6.5228 21.3718C5.79118 20.7006 5.45673 19.9024 5.76505 18.9464C6.08383 17.9626 6.84941 17.4185 7.85277 17.1948C8.86397 16.9685 9.78894 17.21 10.5258 17.9143C13.0054 20.2761 15.4903 22.6353 17.9099 25.0556C18.9237 26.07 19.1249 27.4022 18.9289 28.7852C18.8192 29.5632 18.7225 30.3411 18.5945 31.114C18.5736 31.2436 18.4403 31.4267 18.3253 31.4572C14.8737 32.3699 11.4142 33.2673 7.93377 34.1724C7.8789 33.7682 7.84755 33.3843 7.76654 33.008C7.54967 31.9733 6.97745 31.1267 6.24844 30.3691C5.03083 29.1005 3.82366 27.8166 2.59559 26.5581C1.65494 25.5946 0.98081 24.5218 0.933777 23.1514C0.933777 23.0981 0.89981 23.0472 0.878906 22.9938C0.878906 17.5838 0.878906 12.1737 0.878906 6.76364L0.881519 6.76109Z" fill="#4192CA"/>
<path d="M36.7359 34.175C35.4269 33.8343 34.1518 33.5038 32.8767 33.1707C30.7236 32.6089 28.5732 32.0445 26.4176 31.4903C26.1615 31.4242 26.0439 31.3301 26.0152 31.053C25.9185 30.1352 25.7539 29.2225 25.6729 28.3022C25.5553 26.9497 25.9655 25.7599 26.9715 24.7887C29.2918 22.5489 31.6068 20.3015 33.9349 18.0668C35.1787 16.8719 36.8927 16.7956 38.1365 17.8558C39.2078 18.771 39.2809 20.2151 38.2776 21.204C37.073 22.3913 35.8476 23.5557 34.6326 24.7328C34.5097 24.8523 34.3739 24.9641 34.2824 25.1014C34.0943 25.3785 34.1152 25.6633 34.3477 25.9124C34.5829 26.1616 34.8703 26.1793 35.176 26.0497C35.2152 26.0344 35.2544 26.009 35.2832 25.981C36.7359 24.5624 38.2828 23.2201 39.6128 21.6998C40.995 20.121 40.4463 17.688 38.6381 16.5745C38.45 16.4601 38.3089 16.3711 38.3115 16.1016C38.3246 12.9898 38.3115 9.88053 38.3272 6.76873C38.335 5.39587 39.3802 4.31539 40.7781 4.17047C42.0611 4.03573 43.297 4.87978 43.621 6.13823C43.6994 6.44585 43.7124 6.77635 43.7124 7.09669C43.7176 12.2678 43.702 17.4388 43.7255 22.6074C43.7307 24.0921 43.2238 25.3353 42.1839 26.4056C40.8487 27.781 39.5291 29.1717 38.2122 30.5623C37.2559 31.5691 36.749 32.7589 36.7386 34.175H36.7359Z" fill="#4192CA"/>
<path d="M32.8296 11.2102C32.7982 16.8745 28.0741 21.4278 22.2603 21.3998C16.4806 21.3693 11.7799 16.7804 11.8009 11.1873C11.827 5.45945 16.5616 0.913782 22.4589 0.957001C28.1812 1.00022 32.8635 5.62725 32.8322 11.2102H32.8296ZM22.3126 18.6236C26.5377 18.6388 29.9554 15.3211 29.9893 11.172C30.0233 7.12722 26.569 3.74339 22.3936 3.72813C18.1372 3.71034 14.6803 7.01027 14.6542 11.1187C14.6254 15.255 18.0483 18.6083 22.3152 18.6236H22.3126Z" fill="#4192CA"/>
<path d="M7.52018 39.3333C7.39737 39.2088 7.14914 39.0689 7.08382 38.8681C6.83298 38.1105 6.62917 37.3376 6.43321 36.5622C6.3313 36.158 6.54033 35.9241 7.07076 35.7868C8.76392 35.3444 10.4597 34.9071 12.1555 34.4673C14.6142 33.8267 17.0704 33.186 19.5291 32.5453C20.1771 32.3775 20.4018 32.4996 20.5717 33.1148C20.7546 33.7758 20.9401 34.4394 21.1099 35.1029C21.2327 35.5758 21.0864 35.8198 20.6004 35.947C16.3649 37.0554 12.1294 38.1588 7.89382 39.2621C7.81021 39.2825 7.7266 39.2952 7.51756 39.3333H7.52018Z" fill="#4192CA"/>
<path d="M38.2258 36.4554C38.2128 36.5113 38.1919 36.608 38.1657 36.702C37.9828 37.3783 37.8025 38.0545 37.6118 38.7308C37.4655 39.2494 37.2225 39.3842 36.6842 39.2443C33.1698 38.3316 29.6555 37.4164 26.1411 36.5037C25.4748 36.3308 24.8085 36.158 24.1422 35.98C23.5177 35.8147 23.3871 35.5987 23.5439 35.0088C23.7137 34.3733 23.8914 33.7377 24.0691 33.1046C24.2363 32.5123 24.4688 32.3826 25.0829 32.5402C27.8761 33.2648 30.6667 33.9894 33.4599 34.7165C34.8343 35.0749 36.2087 35.4359 37.583 35.7919C37.9227 35.8809 38.2128 36.0105 38.2258 36.458V36.4554Z" fill="#4192CA"/>
<path d="M23.0104 7.32801C23.6192 7.46784 24.1078 7.71953 24.471 8.16952C24.7454 8.51019 24.7297 8.89408 24.437 9.14832C24.1496 9.39746 23.7498 9.36187 23.4363 9.05934C23.0391 8.6729 22.2814 8.52545 21.764 8.73646C21.3878 8.889 21.1552 9.28052 21.1944 9.68475C21.2336 10.0712 21.521 10.3991 21.9208 10.4703C22.1455 10.511 22.3781 10.5059 22.608 10.5186C23.7394 10.5898 24.6356 11.3652 24.8081 12.4279C24.9805 13.483 24.3639 14.505 23.3135 14.9067C23.2194 14.9423 23.128 14.9753 23.0391 15.0084C22.9477 15.8295 22.7595 16.1041 22.3023 16.0939C21.8581 16.0863 21.6935 15.8397 21.6072 15.1711C21.1003 14.8406 20.6326 14.594 20.2433 14.2635C19.867 13.9431 19.8827 13.5059 20.1832 13.2287C20.4863 12.9516 20.8835 12.9974 21.2414 13.3508C21.6282 13.7347 22.5427 13.8465 23.0025 13.5567C23.3657 13.3254 23.5173 12.9847 23.4206 12.5779C23.3292 12.194 23.0705 11.9347 22.6498 11.8813C22.4068 11.8508 22.1612 11.8584 21.9182 11.8355C20.8312 11.7262 19.9742 10.9407 19.8226 9.91355C19.6659 8.86358 20.2642 7.85427 21.3015 7.47038C21.5419 7.3814 21.636 7.28734 21.6334 7.03056C21.6282 6.56278 21.9077 6.27295 22.3075 6.26532C22.7073 6.26024 22.9869 6.55515 23.0078 7.01022C23.013 7.10683 23.0078 7.20344 23.0078 7.32547L23.0104 7.32801Z" fill="#4192CA"/>
</g>
<defs>
<clipPath id="clip0_42_119">
<rect width="42.8387" height="38.3763" fill="white" transform="translate(0.881836 0.956909)"/>
</clipPath>
</defs>
</svg>
